<svg width="36" height="51" viewBox="0 0 36 51" fill="none" xmlns="http://www.w3.org/2000/svg">
<path d="M35.469 17.7345C35.469 15.4056 35.0103 13.0994 34.119 10.9478C33.2278 8.79615 31.9215 6.84112 30.2747 5.19431C28.6279 3.54751 26.6729 2.2412 24.5212 1.34996C22.3696 0.458716 20.0634 0 17.7345 0C15.4056 0 13.0995 0.458716 10.9478 1.34996C8.79615 2.2412 6.84112 3.54751 5.19432 5.19431C3.54751 6.84112 2.2412 8.79615 1.34996 10.9478C0.458716 13.0994 -3.47037e-08 15.4056 0 17.7345C0 21.2485 1.0362 24.5167 2.79952 27.2731H2.77925L17.7345 50.67L32.6898 27.2731H32.672C34.4984 24.4269 35.4691 21.1163 35.469 17.7345ZM17.7345 25.335C15.7187 25.335 13.7855 24.5342 12.3601 23.1089C10.9348 21.6835 10.134 19.7503 10.134 17.7345C10.134 15.7187 10.9348 13.7855 12.3601 12.3601C13.7855 10.9348 15.7187 10.134 17.7345 10.134C19.7503 10.134 21.6835 10.9348 23.1089 12.3601C24.5342 13.7855 25.335 15.7187 25.335 17.7345C25.335 19.7503 24.5342 21.6835 23.1089 23.1089C21.6835 24.5342 19.7503 25.335 17.7345 25.335Z" fill="#F80D06"/>
<circle cx="17.8614" cy="17.8611" r="13.3009" fill="#F80D06"/>
<path d="M17.0136 10H14.3379C13.5997 10 13 10.5997 13 11.3379V25.5621C13 26.3003 13.5997 26.9 14.3379 26.9H17.0136C17.1212 26.9 17.2135 26.8077 17.2135 26.7001V25.0086C17.2135 24.9009 17.1212 24.8086 17.0136 24.8086H16.014C15.5219 24.8086 15.1221 24.4088 15.1221 23.9167V12.9986C15.1221 12.5066 15.5219 12.1067 16.014 12.1067H17.0136C17.1212 12.1067 17.2135 12.0145 17.2135 11.9068V10.2153C17.2135 10.0923 17.1212 10 17.0136 10ZM21.1501 10H18.4744C18.3668 10 18.2745 10.0923 18.2745 10.1999V11.8914C18.2745 11.9991 18.3668 12.0914 18.4744 12.0914H19.474C19.9661 12.0914 20.3659 12.4912 20.3659 12.9833V15.213C20.3659 15.3514 20.3351 15.4898 20.2736 15.6128L19.0742 18.0271C19.0126 18.1501 18.9665 18.2885 18.9665 18.4423C18.9665 18.5961 18.9973 18.7345 19.0742 18.8575L20.2736 21.2718C20.3351 21.3948 20.3659 21.5332 20.3659 21.6716V23.9014C20.3659 24.3934 19.9661 24.7933 19.474 24.7933H18.4744C18.3668 24.7933 18.2745 24.8855 18.2745 24.9932V26.6847C18.2745 26.7924 18.3668 26.8846 18.4744 26.8846H21.1501C21.8883 26.8846 22.488 26.2849 22.488 25.5468V21.5025C22.488 21.2718 22.4265 21.0719 22.3342 20.872L21.4116 19.0113C21.3347 18.8421 21.2885 18.6422 21.2885 18.4423C21.2885 18.2424 21.3347 18.0579 21.4116 17.8733L22.3342 16.0126C22.4265 15.8281 22.488 15.6128 22.488 15.3822V11.3379C22.5034 10.5997 21.8883 10 21.1501 10Z" fill="white"/>
</svg>
