<svg width="26" height="36" viewBox="0 0 26 36" fill="none" xmlns="http://www.w3.org/2000/svg">
<path d="M12.6 35.2437C12.5503 35.1865 12.496 35.1238 12.4374 35.0558C12.0957 34.6591 11.6067 34.0811 11.0195 33.3576C9.84467 31.91 8.27908 29.8831 6.71448 27.5641C5.14892 25.2437 3.59053 22.6401 2.42505 20.0385C1.25664 17.4305 0.5 14.8613 0.5 12.6C0.5 5.91014 5.91014 0.5 12.6 0.5C19.2899 0.5 24.7 5.91014 24.7 12.6C24.7 14.8613 23.9434 17.4305 22.7749 20.0385C21.6095 22.6401 20.0511 25.2437 18.4855 27.5641C16.9209 29.8831 15.3553 31.91 14.1805 33.3576C13.5933 34.0811 13.1043 34.6591 12.7626 35.0558C12.704 35.1238 12.6497 35.1865 12.6 35.2437ZM9.06446 16.1355C10.0021 17.0732 11.2739 17.6 12.6 17.6C13.9261 17.6 15.1979 17.0732 16.1355 16.1355C17.0732 15.1979 17.6 13.9261 17.6 12.6C17.6 11.2739 17.0732 10.0021 16.1355 9.06447C15.1979 8.12678 13.9261 7.6 12.6 7.6C11.2739 7.6 10.0021 8.12678 9.06446 9.06447C8.12678 10.0021 7.6 11.2739 7.6 12.6C7.6 13.9261 8.12678 15.1979 9.06446 16.1355Z" fill="#EB0000" stroke="#EB0000"/>
</svg>
